<svg width="1440" height="705" viewBox="0 0 1440 705" fill="none" xmlns="http://www.w3.org/2000/svg">
<rect width="1440" height="125" transform="matrix(1 0 0 -1 0 705.342)" fill="#0D165C"/>
<path fill-rule="evenodd" clip-rule="evenodd" d="M183.633 0.27066C100.937 -4.66051 29.9015 58.3801 24.9703 141.076L4.92862 477.176C-0.00255346 559.872 63.0381 630.907 145.734 635.838L1290.43 704.097C1357.91 708.121 1417.64 666.876 1440 606.622V129.067C1414.49 94.6122 1374.47 71.2804 1328.33 68.529L183.633 0.27066Z" fill="#DFE2FF"/>
<path fill-rule="evenodd" clip-rule="evenodd" d="M0 580.497C24.4425 616.705 64.4167 641.978 111.328 646.075L789.892 705.342H1395.66C1420.2 681.193 1436.59 648.521 1439.82 611.537L1440 609.447V161.881C1415.29 129.403 1377.5 107.065 1333.64 103.235L167.635 1.39357C85.1067 -5.8146 12.3607 55.2445 5.15256 137.773L0 196.766V580.497Z" fill="#172176"/>
</svg>
