<svg width="25" height="29" viewBox="0 0 25 29" fill="none" xmlns="http://www.w3.org/2000/svg">
<path d="M12.5049 8.00841C9.39941 8.00841 6.89453 10.7977 6.89453 14.2558C6.89453 17.7139 9.39941 20.5033 12.5049 20.5033C15.6104 20.5033 18.1152 17.7139 18.1152 14.2558C18.1152 10.7977 15.6104 8.00841 12.5049 8.00841ZM12.5049 18.3175C10.498 18.3175 8.85742 16.496 8.85742 14.2558C8.85742 12.0157 10.4932 10.1942 12.5049 10.1942C14.5166 10.1942 16.1523 12.0157 16.1523 14.2558C16.1523 16.496 14.5117 18.3175 12.5049 18.3175ZM19.6533 7.75285C19.6533 8.56301 19.0674 9.21004 18.3447 9.21004C17.6172 9.21004 17.0361 8.55757 17.0361 7.75285C17.0361 6.94814 17.6221 6.29567 18.3447 6.29567C19.0674 6.29567 19.6533 6.94814 19.6533 7.75285ZM23.3691 9.23179C23.2861 7.27981 22.8857 5.55076 21.6016 4.12619C20.3223 2.70163 18.7695 2.25577 17.0166 2.1579C15.21 2.04372 9.79492 2.04372 7.98828 2.1579C6.24023 2.25034 4.6875 2.69619 3.40332 4.12076C2.11914 5.54532 1.72363 7.27437 1.63574 9.22636C1.5332 11.2381 1.5332 17.2681 1.63574 19.2799C1.71875 21.2318 2.11914 22.9609 3.40332 24.3855C4.6875 25.81 6.23535 26.2559 7.98828 26.3538C9.79492 26.4679 15.21 26.4679 17.0166 26.3538C18.7695 26.2613 20.3223 25.8155 21.6016 24.3855C22.8809 22.9609 23.2812 21.2318 23.3691 19.2799C23.4717 17.2681 23.4717 11.2436 23.3691 9.23179ZM21.0352 21.4385C20.6543 22.5042 19.917 23.3252 18.9551 23.7547C17.5146 24.3909 14.0967 24.2441 12.5049 24.2441C10.9131 24.2441 7.49023 24.3855 6.05469 23.7547C5.09766 23.3306 4.36035 22.5096 3.97461 21.4385C3.40332 19.8345 3.53516 16.0284 3.53516 14.2558C3.53516 12.4833 3.4082 8.67175 3.97461 7.0732C4.35547 6.00749 5.09277 5.18646 6.05469 4.75692C7.49512 4.12076 10.9131 4.26756 12.5049 4.26756C14.0967 4.26756 17.5195 4.12619 18.9551 4.75692C19.9121 5.18103 20.6494 6.00205 21.0352 7.0732C21.6064 8.67719 21.4746 12.4833 21.4746 14.2558C21.4746 16.0284 21.6064 19.8399 21.0352 21.4385Z" fill="white"/>
</svg>
