<svg width="25" height="29" viewBox="0 0 25 29" fill="none" xmlns="http://www.w3.org/2000/svg">
<g clip-path="url(#clip0_162_45)">
<path d="M6.45898 24.7007H1.92383V8.43784H6.45898V24.7007ZM4.18896 6.21943C2.73877 6.21943 1.5625 4.88186 1.5625 3.26699C1.5625 2.49131 1.83922 1.7474 2.33177 1.19891C2.82433 0.650423 3.49238 0.342285 4.18896 0.342285C4.88555 0.342285 5.5536 0.650423 6.04616 1.19891C6.53871 1.7474 6.81543 2.49131 6.81543 3.26699C6.81543 4.88186 5.63867 6.21943 4.18896 6.21943ZM23.4326 24.7007H18.9072V16.784C18.9072 14.8973 18.873 12.4777 16.5493 12.4777C14.1914 12.4777 13.8301 14.5276 13.8301 16.6481V24.7007H9.29981V8.43784H13.6494V10.6562H13.7129C14.3184 9.37849 15.7974 8.03004 18.0039 8.03004C22.5938 8.03004 23.4375 11.3957 23.4375 15.7673V24.7007H23.4326Z" fill="white"/>
</g>
<defs>
<clipPath id="clip0_162_45">
<rect width="25" height="27.8388" fill="white" transform="translate(0 0.341797)"/>
</clipPath>
</defs>
</svg>
