<svg width="25" height="29" viewBox="0 0 25 29" fill="none" xmlns="http://www.w3.org/2000/svg">
<path d="M22.4302 8.59092C22.446 8.8382 22.446 9.08554 22.446 9.33283C22.446 16.8754 17.2906 25.5662 7.86802 25.5662C4.96509 25.5662 2.26841 24.63 0 23.005C0.412451 23.0579 0.808984 23.0756 1.2373 23.0756C3.63257 23.0756 5.83755 22.1747 7.59834 20.6379C5.3458 20.5849 3.45811 18.9422 2.80771 16.6811C3.125 16.7341 3.44224 16.7694 3.77539 16.7694C4.2354 16.7694 4.69546 16.6988 5.12373 16.5752C2.77603 16.0452 1.01519 13.7489 1.01519 10.9756V10.905C1.69727 11.3289 2.49048 11.5939 3.33115 11.6292C1.95107 10.6046 1.04692 8.85587 1.04692 6.87747C1.04692 5.81764 1.30068 4.8461 1.74487 3.99822C4.26709 7.4604 8.05835 9.72138 12.3096 9.96872C12.2303 9.54478 12.1827 9.10322 12.1827 8.6616C12.1827 5.51734 14.4669 2.95605 17.3064 2.95605C18.7816 2.95605 20.1141 3.64496 21.05 4.7578C22.208 4.51052 23.3184 4.03356 24.302 3.38C23.9212 4.70484 23.1122 5.81769 22.0494 6.52421C23.0805 6.40062 24.0799 6.08259 24.9999 5.64103C24.302 6.7715 23.4295 7.77832 22.4302 8.59092Z" fill="white"/>
</svg>
