<svg width="25" height="29" viewBox="0 0 25 29" fill="none" xmlns="http://www.w3.org/2000/svg">
<path d="M23.8566 7.88533C23.584 6.7423 22.7808 5.84208 21.761 5.53658C19.9124 4.98145 12.5001 4.98145 12.5001 4.98145C12.5001 4.98145 5.08773 4.98145 3.23917 5.53658C2.21933 5.84213 1.41612 6.7423 1.14351 7.88533C0.648193 9.95715 0.648193 14.2798 0.648193 14.2798C0.648193 14.2798 0.648193 18.6025 1.14351 20.6743C1.41612 21.8173 2.21933 22.68 3.23917 22.9855C5.08773 23.5407 12.5001 23.5407 12.5001 23.5407C12.5001 23.5407 19.9124 23.5407 21.761 22.9855C22.7808 22.68 23.584 21.8173 23.8566 20.6743C24.3519 18.6025 24.3519 14.2798 24.3519 14.2798C24.3519 14.2798 24.3519 9.95715 23.8566 7.88533ZM10.0758 18.2045V10.3552L16.2711 14.2799L10.0758 18.2045Z" fill="white"/>
</svg>
